<svg xmlns="http://www.w3.org/2000/svg" width="1919.682" height="187.118" viewBox="0 0 1919.682 187.118">
  <g id="Group_6" data-name="Group 6" transform="translate(1951.682 1214.118) rotate(180)">
    <path id="Union_4" data-name="Union 4" d="M-1601.584-583.882V-668.1h-65.985v59.129h-38.992v-46.587h-47.99v60.921h-59.987v-46.587h-46.49v43h-55.488v-78.838H-1958v-93.173h928.4V-771H-38.318v120.049H-59.312v44.8H-108.8v-68.088H-161.29v43h-64.485v-46.588h-49.49V-618.7h-56.987v-60.919h-46.49v35.835h-49.489v28.669H-479.22v-59.129h-47.991v32.252H-573.7v57.338h-67.486v-84.216h-65.986v59.129h-38.992v-46.587h-47.99V-595.4H-854.14v-46.587h-46.49v43h-55.489v-78.839h-42.6v27.649h-21v44.795H-1069.2v-68.089h-52.489v43h-64.486v-46.587h-49.489v59.129h-56.987v-60.921h-46.49v35.835h-49.489v28.669h-50.989v-59.129h-47.99v32.252h-46.49v57.337Z" transform="translate(1990 1798)" fill="#0f0f0f"/>
  </g>
</svg>
