<svg xmlns="http://www.w3.org/2000/svg" width="1919.683" height="187.117" viewBox="0 0 1919.683 187.117">
  <g id="Group_3" data-name="Group 3" transform="translate(-55 -1027)">
    <path id="Union_3" data-name="Union 3" d="M-1546.584,120.118V35.9h-65.985V95.033h-38.992V48.446h-47.99v60.921h-59.987V62.78h-46.49v43h-55.488V26.945H-1880V-66.228h928.4V-67H39.683V53.05H18.689V97.844H-30.8V29.757H-83.291v43h-64.485V26.174h-49.489V85.3h-56.988V24.382h-46.49V60.217h-49.488v28.67h-50.99V29.757h-47.99V62.009H-495.7v57.338h-67.485V35.132h-65.986v59.13h-38.992V47.675h-47.991V108.6h-59.986V62.009h-46.49v43h-55.489V26.174h-65.6V53.822h-21V98.617H-1014.2V30.528h-52.489v43h-64.486V26.945h-49.489V86.074h-56.987V25.153h-46.49V60.989h-49.489V89.657h-50.989V30.528h-47.99V62.78h-46.49v57.337Z" transform="translate(1935 1094)" fill="#0f0f0f"/>
  </g>
</svg>
